<svg id="visual" viewBox="0 0 900 450" width="900" height="450" xmlns="http://www.w3.org/2000/svg" xmlns:xlink="http://www.w3.org/1999/xlink" version="1.1"><rect x="0" y="0" width="900" height="450" fill="#2a9d8f"></rect><path d="M0 247L18.8 240.3C37.7 233.7 75.3 220.3 112.8 221.5C150.3 222.7 187.7 238.3 225.2 236C262.7 233.7 300.3 213.3 337.8 209C375.3 204.7 412.7 216.3 450.2 219C487.7 221.7 525.3 215.3 562.8 222.7C600.3 230 637.7 251 675.2 252.7C712.7 254.3 750.3 236.7 787.8 224C825.3 211.3 862.7 203.7 881.3 199.8L900 196L900 451L881.3 451C862.7 451 825.3 451 787.8 451C750.3 451 712.7 451 675.2 451C637.7 451 600.3 451 562.8 451C525.3 451 487.7 451 450.2 451C412.7 451 375.3 451 337.8 451C300.3 451 262.7 451 225.2 451C187.7 451 150.3 451 112.8 451C75.3 451 37.7 451 18.8 451L0 451Z" fill="#e9c46a"></path><path d="M0 297L18.8 289.2C37.7 281.3 75.3 265.7 112.8 258.5C150.3 251.3 187.7 252.7 225.2 249.2C262.7 245.7 300.3 237.3 337.8 243.7C375.3 250 412.7 271 450.2 275.5C487.7 280 525.3 268 562.8 263.3C600.3 258.7 637.7 261.3 675.2 262.8C712.7 264.3 750.3 264.7 787.8 258.8C825.3 253 862.7 241 881.3 235L900 229L900 451L881.3 451C862.7 451 825.3 451 787.8 451C750.3 451 712.7 451 675.2 451C637.7 451 600.3 451 562.8 451C525.3 451 487.7 451 450.2 451C412.7 451 375.3 451 337.8 451C300.3 451 262.7 451 225.2 451C187.7 451 150.3 451 112.8 451C75.3 451 37.7 451 18.8 451L0 451Z" fill="#ebb05d"></path><path d="M0 309L18.8 314.5C37.7 320 75.3 331 112.8 331.8C150.3 332.7 187.7 323.3 225.2 314.5C262.7 305.7 300.3 297.3 337.8 302.7C375.3 308 412.7 327 450.2 333C487.7 339 525.3 332 562.8 321C600.3 310 637.7 295 675.2 292.7C712.7 290.3 750.3 300.7 787.8 305.2C825.3 309.7 862.7 308.3 881.3 307.7L900 307L900 451L881.3 451C862.7 451 825.3 451 787.8 451C750.3 451 712.7 451 675.2 451C637.7 451 600.3 451 562.8 451C525.3 451 487.7 451 450.2 451C412.7 451 375.3 451 337.8 451C300.3 451 262.7 451 225.2 451C187.7 451 150.3 451 112.8 451C75.3 451 37.7 451 18.8 451L0 451Z" fill="#ec9b54"></path><path d="M0 326L18.8 327.3C37.7 328.7 75.3 331.3 112.8 336C150.3 340.7 187.7 347.3 225.2 351.5C262.7 355.7 300.3 357.3 337.8 362.2C375.3 367 412.7 375 450.2 377.7C487.7 380.3 525.3 377.7 562.8 367.8C600.3 358 637.7 341 675.2 332.8C712.7 324.7 750.3 325.3 787.8 325.7C825.3 326 862.7 326 881.3 326L900 326L900 451L881.3 451C862.7 451 825.3 451 787.8 451C750.3 451 712.7 451 675.2 451C637.7 451 600.3 451 562.8 451C525.3 451 487.7 451 450.2 451C412.7 451 375.3 451 337.8 451C300.3 451 262.7 451 225.2 451C187.7 451 150.3 451 112.8 451C75.3 451 37.7 451 18.8 451L0 451Z" fill="#eb8550"></path><path d="M0 386L18.8 388.8C37.7 391.7 75.3 397.3 112.8 396C150.3 394.7 187.7 386.3 225.2 389.3C262.7 392.3 300.3 406.7 337.8 406.7C375.3 406.7 412.7 392.3 450.2 385.7C487.7 379 525.3 380 562.8 386.5C600.3 393 637.7 405 675.2 403.7C712.7 402.3 750.3 387.7 787.8 388.7C825.3 389.7 862.7 406.3 881.3 414.7L900 423L900 451L881.3 451C862.7 451 825.3 451 787.8 451C750.3 451 712.7 451 675.2 451C637.7 451 600.3 451 562.8 451C525.3 451 487.7 451 450.2 451C412.7 451 375.3 451 337.8 451C300.3 451 262.7 451 225.2 451C187.7 451 150.3 451 112.8 451C75.3 451 37.7 451 18.8 451L0 451Z" fill="#e76f51"></path></svg>