<svg xmlns="http://www.w3.org/2000/svg" height="40" width="40"><g color="#293241"><path stroke="currentcolor" d="M13.875 30.875 20 27.208l6.125 3.709-1.625-6.959 5.375-4.666-7.083-.625L20 12.125l-2.792 6.5-7.083.625 5.375 4.708ZM20 30.458l-7.458 4.5q-.375.25-.792.209-.417-.042-.75-.25-.333-.25-.5-.625-.167-.375-.042-.834l1.959-8.5-6.584-5.75q-.375-.291-.458-.687-.083-.396.042-.771t.416-.625q.292-.25.792-.333l8.708-.75L18.708 8q.167-.417.542-.625.375-.208.75-.208t.75.208q.375.208.542.625l3.375 8.042 8.708.75q.5.083.792.333.291.25.416.625t.042.771q-.083.396-.458.687l-6.584 5.75 1.959 8.5q.125.459-.042.834-.167.375-.5.625-.333.208-.75.25-.417.041-.792-.209Zm0-8.5Z"/></g></svg>